<svg xmlns="http://www.w3.org/2000/svg" xmlns:xlink="http://www.w3.org/1999/xlink" width="500" zoomAndPan="magnify" viewBox="0 0 375 305.999988" height="408" preserveAspectRatio="xMidYMid meet" version="1.0"><defs><g/><clipPath id="86851e842a"><path d="M 87 41 L 179 41 L 179 115 L 87 115 Z M 87 41 " clip-rule="nonzero"/></clipPath><clipPath id="1801e3136c"><path d="M -17.855469 73.769531 L 176.921875 30.628906 L 200.765625 138.269531 L 5.984375 181.410156 Z M -17.855469 73.769531 " clip-rule="nonzero"/></clipPath><clipPath id="c7eb3c75bd"><path d="M -17.855469 73.769531 L 176.921875 30.628906 L 212.28125 190.257812 L 17.5 233.402344 Z M -17.855469 73.769531 " clip-rule="nonzero"/></clipPath><clipPath id="e40eced8fa"><path d="M 129 80 L 152 80 L 152 120 L 129 120 Z M 129 80 " clip-rule="nonzero"/></clipPath><clipPath id="3db4594ed6"><path d="M -17.855469 73.769531 L 176.921875 30.628906 L 200.765625 138.269531 L 5.984375 181.410156 Z M -17.855469 73.769531 " clip-rule="nonzero"/></clipPath><clipPath id="4f24ebc217"><path d="M -17.855469 73.769531 L 176.921875 30.628906 L 212.28125 190.257812 L 17.5 233.402344 Z M -17.855469 73.769531 " clip-rule="nonzero"/></clipPath><clipPath id="dd4b391a7d"><path d="M 64 114 L 121 114 L 121 182 L 64 182 Z M 64 114 " clip-rule="nonzero"/></clipPath><clipPath id="1a4746196a"><path d="M -17.855469 73.769531 L 176.921875 30.628906 L 200.765625 138.269531 L 5.984375 181.410156 Z M -17.855469 73.769531 " clip-rule="nonzero"/></clipPath><clipPath id="ba8617e6cd"><path d="M -17.855469 73.769531 L 176.921875 30.628906 L 212.28125 190.257812 L 17.5 233.402344 Z M -17.855469 73.769531 " clip-rule="nonzero"/></clipPath></defs><g clip-path="url(#86851e842a)"><g clip-path="url(#1801e3136c)"><g clip-path="url(#c7eb3c75bd)"><path fill="#3b82f6" d="M 176.285156 43.902344 C 173.777344 41.054688 169.507812 40.792969 166.644531 43.308594 L 163.988281 45.667969 C 160.976562 44.714844 152.367188 44.121094 139.164062 57.054688 L 99.273438 49.578125 C 96.058594 48.988281 92.796875 50.730469 91.65625 53.804688 C 90.425781 56.898438 91.640625 60.355469 94.34375 62.128906 L 119.5625 77.878906 L 104.742188 97.53125 L 88.753906 95.617188 L 87.230469 101.035156 L 101.015625 113.296875 C 103.566406 114.878906 106.925781 114.679688 109.214844 112.628906 L 115.894531 106.710938 L 128.429688 95.578125 L 140.277344 85.089844 L 150.554688 75.980469 L 155.65625 71.445312 L 175.75 53.617188 C 178.589844 51.070312 178.8125 46.730469 176.285156 43.902344 Z M 176.285156 43.902344 " fill-opacity="1" fill-rule="nonzero"/></g></g></g><g clip-path="url(#e40eced8fa)"><g clip-path="url(#3db4594ed6)"><g clip-path="url(#4f24ebc217)"><path fill="#3b82f6" d="M 129.332031 99.667969 L 132.386719 114.136719 C 133.117188 117.25 135.945312 119.597656 139.269531 119.5 C 142.554688 119.46875 145.320312 117.011719 145.839844 113.773438 L 151.453125 80.035156 L 141.179688 89.160156 Z M 129.332031 99.667969 " fill-opacity="1" fill-rule="nonzero"/></g></g></g><g clip-path="url(#dd4b391a7d)"><g clip-path="url(#1a4746196a)"><g clip-path="url(#ba8617e6cd)"><path fill="#3b82f6" d="M 96.503906 120.503906 L 90.234375 114.59375 C 90.234375 114.59375 15.398438 208.691406 120.570312 211.25 C 120.574219 211.269531 30.277344 204.078125 96.503906 120.503906 Z M 96.503906 120.503906 " fill-opacity="1" fill-rule="nonzero"/></g></g></g><g fill="#3b82f6" fill-opacity="1"><g transform="translate(51.382832, 218.03939)"><g><path d="M 45.414062 7.289062 L 46.96875 6.453125 L 49 5.855469 L 51.269531 4.421875 L 52.585938 3.824219 L 53.898438 2.988281 L 54.738281 2.507812 L 56.410156 1.316406 L 56.289062 0.121094 L 55.933594 -0.71875 L 54.855469 -1.316406 L 53.898438 -2.628906 L 52.945312 -3.824219 L 52.585938 -4.0625 L 51.75 -5.140625 L 50.914062 -6.09375 L 49.835938 -7.527344 L 48.164062 -9.800781 L 47.445312 -10.996094 L 48.042969 -11.59375 L 49.359375 -13.144531 L 50.074219 -14.699219 L 51.152344 -16.851562 L 51.867188 -19.359375 L 52.703125 -21.511719 L 52.703125 -22.230469 L 53.0625 -22.945312 L 53.898438 -26.171875 L 54.738281 -29.757812 L 54.738281 -30.476562 L 54.976562 -31.191406 L 54.855469 -32.03125 L 55.214844 -33.582031 L 55.453125 -34.417969 L 55.8125 -36.09375 L 56.050781 -37.167969 L 56.171875 -38.242188 L 56.53125 -40.277344 L 56.769531 -42.308594 L 56.886719 -43.144531 L 56.886719 -43.980469 L 57.128906 -44.816406 L 57.367188 -46.371094 L 57.367188 -47.207031 L 57.484375 -47.925781 L 57.722656 -49.597656 L 57.964844 -50.316406 L 57.84375 -52.226562 L 58.203125 -54.738281 L 58.320312 -55.453125 L 58.441406 -56.289062 L 58.5625 -57.007812 L 58.679688 -62.984375 L 58.679688 -63.699219 L 58.800781 -67.046875 L 58.5625 -67.882812 L 58.679688 -69.554688 L 58.441406 -70.273438 L 58.441406 -71.828125 L 57.84375 -73.140625 L 57.605469 -73.976562 L 57.484375 -74.933594 L 56.648438 -76.488281 L 55.8125 -77.921875 L 55.09375 -79.117188 L 54.378906 -79.714844 L 53.660156 -80.433594 L 52.945312 -81.03125 L 52.109375 -81.507812 L 51.269531 -82.105469 L 50.433594 -82.464844 L 49.359375 -82.820312 L 48.164062 -83.300781 L 47.207031 -83.777344 L 45.414062 -84.257812 L 44.699219 -84.496094 L 42.785156 -84.855469 L 42.070312 -84.855469 L 40.277344 -84.972656 L 39.558594 -85.09375 L 36.808594 -85.09375 L 35.257812 -84.855469 L 34.417969 -84.734375 L 33.222656 -84.613281 L 32.269531 -84.257812 L 31.074219 -84.015625 L 29.757812 -83.777344 L 28.324219 -83.300781 L 27.488281 -82.941406 L 26.292969 -82.105469 L 25.21875 -81.628906 L 24.5 -81.148438 L 23.183594 -80.3125 L 21.871094 -79.117188 L 21.273438 -78.519531 L 20.554688 -77.921875 L 19.242188 -76.609375 L 18.164062 -75.292969 L 16.730469 -72.542969 L 16.375 -72.066406 L 15.296875 -69.316406 L 14.582031 -67.644531 L 14.339844 -66.925781 L 13.503906 -64.296875 L 13.386719 -63.582031 L 12.429688 -60.953125 L 12.070312 -59.398438 L 12.070312 -58.679688 L 11.832031 -57.84375 L 11.832031 -57.128906 L 11.59375 -56.410156 L 11.355469 -55.574219 L 11.234375 -54.617188 L 10.996094 -53.78125 L 10.515625 -52.347656 L 10.277344 -50.914062 L 10.277344 -50.074219 L 9.917969 -49.359375 L 9.800781 -47.925781 L 9.441406 -47.207031 L 9.320312 -46.492188 L 9.082031 -45.652344 L 8.964844 -44.699219 L 8.605469 -42.90625 L 8.246094 -41.230469 L 8.246094 -39.679688 L 7.886719 -38.125 L 7.527344 -34.777344 L 7.527344 -34.300781 L 7.171875 -32.867188 L 7.050781 -31.191406 L 6.691406 -29.996094 L 6.691406 -27.367188 L 6.453125 -25.933594 L 6.214844 -25.21875 L 6.453125 -24.5 L 6.335938 -22.945312 L 6.335938 -19.839844 L 6.574219 -18.285156 L 6.933594 -15.777344 L 6.933594 -14.101562 L 7.527344 -12.308594 L 8.484375 -8.964844 L 8.84375 -8.125 L 10.636719 -5.617188 L 10.996094 -5.140625 L 11.355469 -4.421875 L 11.953125 -3.945312 L 13.265625 -2.75 L 13.984375 -2.152344 L 14.820312 -1.433594 L 16.132812 -0.835938 L 16.972656 -0.476562 L 17.6875 -0.121094 L 19.242188 0.238281 L 21.152344 0.71875 L 22.585938 0.957031 L 23.78125 0.957031 L 24.859375 1.195312 L 26.414062 1.074219 L 29.160156 1.195312 L 31.789062 0.71875 L 34.0625 -0.121094 L 35.734375 -0.597656 L 37.050781 -1.074219 L 37.289062 -0.71875 L 37.527344 -0.238281 L 38.242188 0.957031 L 38.722656 1.792969 L 39.082031 2.390625 L 40.15625 3.464844 L 41.589844 5.019531 L 42.308594 5.496094 L 43.742188 6.8125 Z M 27.605469 -13.984375 L 26.652344 -14.460938 L 25.457031 -15.179688 L 24.621094 -15.777344 L 23.78125 -17.6875 L 23.425781 -19.601562 L 23.183594 -21.394531 L 23.066406 -22.109375 L 23.183594 -23.183594 L 23.425781 -24.738281 L 23.664062 -26.171875 L 23.542969 -27.367188 L 23.542969 -28.203125 L 23.78125 -29.640625 L 23.902344 -30.59375 L 24.140625 -31.433594 L 24.261719 -32.386719 L 24.738281 -34.179688 L 24.976562 -36.332031 L 24.976562 -36.929688 L 25.335938 -38.484375 L 25.457031 -40.394531 L 25.816406 -41.949219 L 26.292969 -44.21875 L 26.652344 -46.371094 L 27.605469 -50.195312 L 27.847656 -51.511719 L 28.085938 -52.109375 L 28.445312 -54.617188 L 28.800781 -56.171875 L 29.042969 -57.722656 L 29.519531 -58.917969 L 30.238281 -61.789062 L 30.835938 -63.339844 L 31.074219 -64.296875 L 31.3125 -65.015625 L 31.789062 -66.808594 L 32.269531 -67.167969 L 32.625 -68.242188 L 34.417969 -70.035156 L 36.570312 -70.511719 L 38.601562 -70.273438 L 39.4375 -69.914062 L 40.992188 -68.71875 L 41.472656 -67.761719 L 41.710938 -67.046875 L 42.308594 -65.730469 L 42.1875 -64.894531 L 42.1875 -63.101562 L 42.070312 -60.953125 L 42.070312 -59.160156 L 42.1875 -58.320312 L 41.949219 -56.53125 L 41.828125 -55.574219 L 41.949219 -54.855469 L 41.828125 -52.109375 L 41.472656 -51.152344 L 41.351562 -50.195312 L 41.230469 -48.402344 L 40.753906 -46.609375 L 40.632812 -45.894531 L 40.753906 -44.9375 L 40.515625 -43.382812 L 40.15625 -42.546875 L 40.15625 -41.828125 L 39.796875 -40.035156 L 39.558594 -38.003906 L 38.960938 -35.375 L 39.082031 -34.300781 L 38.601562 -32.867188 L 38.003906 -30.476562 L 37.527344 -28.445312 L 37.289062 -26.53125 L 36.929688 -24.621094 L 36.570312 -22.828125 L 36.09375 -21.992188 L 35.613281 -19.957031 L 35.015625 -18.523438 L 34.777344 -17.6875 L 33.820312 -16.492188 L 33.105469 -15.777344 L 32.507812 -15.296875 L 31.3125 -14.460938 L 29.640625 -13.984375 Z M 27.605469 -13.984375 "/></g></g></g><g fill="#3b82f6" fill-opacity="1"><g transform="translate(109.702629, 218.03939)"><g><path d="M 25.933594 0.71875 L 28.324219 0.71875 L 30.117188 0.597656 L 32.867188 0.597656 L 35.257812 0.359375 L 35.972656 0.121094 L 37.050781 -0.121094 L 38.484375 -0.476562 L 39.199219 -0.71875 L 41.113281 -1.433594 L 41.710938 -1.914062 L 43.144531 -2.507812 L 44.101562 -3.105469 L 45.175781 -3.703125 L 46.132812 -4.898438 L 47.207031 -5.738281 L 47.925781 -6.8125 L 48.402344 -7.886719 L 49 -8.722656 L 49.476562 -9.5625 L 50.195312 -11.234375 L 50.671875 -11.953125 L 51.511719 -13.503906 L 51.867188 -15.058594 L 52.464844 -15.777344 L 52.824219 -17.808594 L 53.300781 -19.359375 L 53.78125 -20.796875 L 54.019531 -21.632812 L 54.257812 -22.347656 L 54.257812 -23.183594 L 54.496094 -24.261719 L 54.855469 -25.574219 L 55.09375 -26.414062 L 55.09375 -27.128906 L 55.453125 -28.683594 L 55.933594 -30.117188 L 55.933594 -30.355469 L 56.289062 -32.03125 L 56.410156 -32.867188 L 56.886719 -34.539062 L 57.246094 -36.09375 L 57.484375 -37.527344 L 57.605469 -39.082031 L 58.082031 -40.035156 L 58.320312 -41.710938 L 58.320312 -42.546875 L 58.800781 -44.21875 L 58.917969 -45.894531 L 59.160156 -47.566406 L 59.277344 -48.28125 L 59.636719 -49.957031 L 59.636719 -50.671875 L 59.996094 -52.464844 L 60.832031 -55.09375 L 60.710938 -55.933594 L 60.953125 -56.769531 L 61.070312 -57.484375 L 61.308594 -58.320312 L 61.308594 -59.160156 L 61.667969 -60.59375 L 61.90625 -61.667969 L 62.265625 -62.742188 L 62.503906 -63.820312 L 62.863281 -65.132812 L 62.863281 -65.851562 L 63.339844 -67.285156 L 63.222656 -68.003906 L 63.699219 -69.554688 L 63.820312 -70.394531 L 64.058594 -71.347656 L 64.179688 -72.1875 L 64.65625 -73.859375 L 64.777344 -74.816406 L 65.015625 -76.488281 L 65.253906 -77.445312 L 65.375 -79.238281 L 66.089844 -80.910156 L 65.972656 -82.703125 L 65.015625 -83.660156 L 64.058594 -83.777344 L 62.984375 -83.660156 L 62.148438 -83.539062 L 60.953125 -83.660156 L 60.113281 -83.539062 L 59.160156 -83.539062 L 58.320312 -83.660156 L 57.484375 -83.660156 L 54.019531 -83.539062 L 53.183594 -83.660156 L 52.347656 -83.660156 L 48.761719 -83.539062 L 48.402344 -82.703125 L 48.28125 -81.746094 L 47.925781 -80.191406 L 47.566406 -78.519531 L 47.207031 -76.964844 L 47.089844 -76.25 L 46.96875 -74.816406 L 46.847656 -74.097656 L 46.25 -72.78125 L 46.371094 -71.945312 L 46.132812 -70.394531 L 45.894531 -68.71875 L 45.535156 -67.046875 L 45.414062 -66.089844 L 45.175781 -64.417969 L 45.054688 -63.460938 L 44.578125 -61.789062 L 44.699219 -60.472656 L 43.980469 -59.277344 L 43.980469 -57.605469 L 43.859375 -57.007812 L 43.621094 -55.335938 L 43.621094 -54.378906 L 43.144531 -52.703125 L 43.023438 -51.75 L 42.546875 -50.074219 L 42.308594 -48.640625 L 41.949219 -47.089844 L 41.710938 -45.535156 L 41.710938 -44.578125 L 41.113281 -42.90625 L 40.875 -42.070312 L 40.753906 -40.632812 L 40.277344 -38.484375 L 40.035156 -37.289062 L 39.796875 -35.734375 L 39.679688 -34.898438 L 39.4375 -33.941406 L 39.199219 -33.105469 L 39.082031 -32.03125 L 38.839844 -30.953125 L 38.601562 -30.238281 L 38.484375 -29.042969 L 38.242188 -28.203125 L 37.886719 -26.53125 L 37.289062 -24.140625 L 37.050781 -23.425781 L 36.808594 -22.347656 L 36.210938 -21.152344 L 35.375 -19.242188 L 35.015625 -18.523438 L 34.300781 -17.566406 L 33.105469 -16.613281 L 30.355469 -16.253906 L 27.847656 -16.613281 L 26.53125 -16.972656 L 25.21875 -18.523438 L 25.097656 -19.957031 L 25.097656 -21.273438 L 24.976562 -23.183594 L 25.097656 -24.023438 L 25.21875 -24.738281 L 25.335938 -25.816406 L 25.695312 -28.683594 L 26.054688 -30.238281 L 26.171875 -31.910156 L 26.53125 -34.300781 L 27.128906 -38.601562 L 27.367188 -40.035156 L 27.847656 -41.589844 L 27.847656 -43.144531 L 28.203125 -44.578125 L 28.445312 -45.296875 L 28.683594 -46.132812 L 28.800781 -47.089844 L 28.921875 -48.164062 L 29.398438 -49.238281 L 29.160156 -50.792969 L 29.28125 -51.511719 L 29.878906 -53.183594 L 29.878906 -54.019531 L 30.117188 -54.976562 L 30.238281 -55.8125 L 30.355469 -57.007812 L 30.714844 -57.84375 L 30.835938 -58.5625 L 31.074219 -60.355469 L 31.433594 -62.148438 L 31.550781 -63.101562 L 32.148438 -64.777344 L 32.269531 -65.613281 L 32.269531 -66.808594 L 32.386719 -67.761719 L 32.625 -69.316406 L 33.105469 -70.75 L 33.105469 -71.589844 L 33.34375 -72.304688 L 33.464844 -73.140625 L 33.703125 -74.097656 L 33.941406 -75.171875 L 34.179688 -76.011719 L 34.0625 -77.683594 L 34.300781 -78.519531 L 34.539062 -79.238281 L 34.539062 -80.910156 L 34.417969 -82.703125 L 33.34375 -83.539062 L 31.433594 -83.660156 L 30.355469 -83.777344 L 27.488281 -83.539062 L 22.46875 -83.660156 L 21.394531 -83.539062 L 20.796875 -83.539062 L 18.761719 -83.417969 L 18.046875 -83.179688 L 17.808594 -82.222656 L 17.328125 -80.550781 L 17.089844 -78.878906 L 16.851562 -77.683594 L 16.613281 -77.085938 L 16.015625 -75.53125 L 15.65625 -72.1875 L 15.417969 -71.46875 L 15.417969 -70.632812 L 15.058594 -68.957031 L 15.058594 -68.003906 L 14.9375 -67.046875 L 14.582031 -65.375 L 14.460938 -64.417969 L 14.339844 -63.582031 L 13.742188 -62.027344 L 13.625 -61.308594 L 13.625 -60.472656 L 13.386719 -58.917969 L 13.144531 -58.203125 L 12.789062 -54.855469 L 12.429688 -54.140625 L 12.308594 -52.464844 L 12.308594 -51.511719 L 11.832031 -49.835938 L 11.472656 -48.28125 L 11.355469 -46.609375 L 10.875 -45.054688 L 10.875 -43.503906 L 10.636719 -42.664062 L 10.277344 -41.230469 L 10.160156 -40.394531 L 10.277344 -39.558594 L 9.917969 -38.125 L 9.800781 -37.40625 L 9.679688 -36.570312 L 9.203125 -35.136719 L 9.203125 -33.582031 L 8.964844 -32.386719 L 8.722656 -30.953125 L 8.605469 -29.160156 L 8.484375 -27.605469 L 8.007812 -24.378906 L 7.769531 -23.304688 L 7.648438 -19.242188 L 7.527344 -18.523438 L 8.007812 -14.460938 L 8.125 -12.789062 L 8.605469 -10.875 L 9.5625 -9.203125 L 10.515625 -7.289062 L 10.636719 -6.933594 L 11.234375 -5.976562 L 11.832031 -5.257812 L 12.546875 -4.421875 L 13.742188 -3.226562 L 16.132812 -1.792969 L 16.851562 -1.433594 L 17.6875 -1.074219 L 19.71875 -0.359375 L 20.199219 -0.121094 L 21.035156 0.121094 Z M 25.933594 0.71875 "/></g></g></g><g fill="#3b82f6" fill-opacity="1"><g transform="translate(170.41258, 218.03939)"><g><path d="M 16.492188 0.238281 L 19.601562 0.238281 L 20.914062 -0.121094 L 21.273438 -1.195312 L 21.394531 -2.152344 L 21.75 -3.703125 L 21.992188 -5.378906 L 22.347656 -6.933594 L 22.828125 -9.800781 L 23.183594 -11.113281 L 23.183594 -11.953125 L 23.425781 -13.503906 L 23.664062 -15.179688 L 24.023438 -16.851562 L 24.023438 -17.808594 L 24.5 -19.359375 L 24.621094 -20.316406 L 24.976562 -22.109375 L 24.859375 -23.425781 L 25.457031 -24.621094 L 25.457031 -26.292969 L 25.574219 -26.890625 L 25.816406 -28.5625 L 25.816406 -29.519531 L 26.292969 -31.191406 L 26.292969 -32.148438 L 26.769531 -33.820312 L 27.011719 -35.257812 L 27.25 -36.808594 L 27.605469 -38.363281 L 27.605469 -39.320312 L 27.964844 -40.15625 L 28.445312 -41.828125 L 29.042969 -45.414062 L 29.398438 -46.609375 L 29.640625 -48.164062 L 29.640625 -49 L 29.757812 -49.957031 L 29.878906 -50.792969 L 29.878906 -51.867188 L 30.238281 -52.945312 L 30.59375 -54.617188 L 30.714844 -55.214844 L 31.074219 -56.769531 L 31.433594 -58.203125 L 31.671875 -59.757812 L 31.789062 -60.59375 L 31.910156 -62.027344 L 32.03125 -62.863281 L 32.269531 -64.296875 L 32.507812 -65.015625 L 32.746094 -66.328125 L 33.34375 -69.4375 L 33.464844 -70.152344 L 33.464844 -70.992188 L 33.582031 -71.707031 L 33.582031 -72.664062 L 34.0625 -73.738281 L 34.300781 -75.414062 L 34.660156 -76.011719 L 34.660156 -77.085938 L 35.015625 -77.5625 L 34.898438 -78.28125 L 35.015625 -79.59375 L 35.257812 -79.953125 L 35.257812 -81.507812 L 35.375 -82.222656 L 34.898438 -83.417969 L 33.582031 -83.777344 L 32.746094 -83.660156 L 26.414062 -83.660156 L 25.574219 -83.539062 L 23.902344 -83.539062 L 22.828125 -83.660156 L 21.035156 -83.539062 L 20.199219 -83.417969 L 19.480469 -82.941406 L 18.644531 -82.582031 L 17.808594 -81.386719 L 17.6875 -80.550781 L 17.449219 -79.835938 L 17.210938 -78.042969 L 16.730469 -76.726562 L 16.492188 -75.414062 L 16.375 -73.976562 L 16.132812 -73.261719 L 16.015625 -72.542969 L 15.65625 -70.992188 L 15.417969 -69.316406 L 15.179688 -68.71875 L 15.058594 -67.167969 L 14.9375 -66.210938 L 15.058594 -65.375 L 14.582031 -63.820312 L 14.460938 -62.984375 L 14.101562 -61.429688 L 13.984375 -60.710938 L 13.503906 -59.277344 L 13.625 -58.441406 L 13.503906 -57.722656 L 13.265625 -56.050781 L 12.90625 -55.214844 L 12.90625 -53.542969 L 12.546875 -51.03125 L 11.953125 -49.359375 L 11.59375 -47.804688 L 11.355469 -46.371094 L 11.355469 -44.816406 L 10.875 -43.859375 L 10.636719 -42.1875 L 10.636719 -41.351562 L 10.160156 -39.679688 L 10.160156 -38.003906 L 9.917969 -36.332031 L 9.800781 -35.613281 L 9.679688 -34.777344 L 9.441406 -33.941406 L 9.441406 -33.222656 L 9.203125 -31.433594 L 8.367188 -28.800781 L 8.484375 -27.964844 L 8.246094 -27.128906 L 8.125 -26.414062 L 7.886719 -25.574219 L 7.886719 -24.738281 L 7.648438 -23.304688 L 7.410156 -22.230469 L 7.050781 -21.152344 L 6.8125 -20.078125 L 6.453125 -18.761719 L 6.09375 -16.613281 L 6.214844 -15.894531 L 5.738281 -14.339844 L 5.617188 -13.503906 L 5.378906 -12.546875 L 5.257812 -11.710938 L 4.898438 -9.917969 L 4.78125 -8.964844 L 4.542969 -7.289062 L 4.300781 -6.453125 L 4.183594 -4.660156 L 3.585938 -2.988281 L 3.703125 -1.195312 L 4.660156 -0.359375 L 5.617188 -0.121094 L 6.574219 -0.238281 L 7.410156 -0.121094 L 8.722656 0 L 9.5625 -0.121094 L 10.515625 -0.121094 L 12.191406 0.121094 L 15.65625 0.121094 Z M 16.492188 0.238281 "/></g></g></g><g fill="#22c55e" fill-opacity="1"><g transform="translate(201.85157, 218.03939)"><g><path d="M 9.320312 0.121094 L 18.882812 0.121094 L 19.71875 0 L 20.078125 -1.433594 L 20.199219 -2.390625 L 20.316406 -3.464844 L 20.675781 -4.421875 L 20.796875 -5.257812 L 21.035156 -5.976562 L 21.152344 -6.8125 L 21.152344 -7.769531 L 21.632812 -8.484375 L 21.632812 -10.160156 L 21.992188 -11.953125 L 21.992188 -13.144531 L 22.347656 -13.984375 L 22.46875 -14.820312 L 22.828125 -16.253906 L 23.066406 -17.089844 L 23.304688 -18.523438 L 23.664062 -19.601562 L 24.023438 -21.273438 L 24.023438 -21.992188 L 24.140625 -22.828125 L 24.378906 -23.542969 L 24.5 -24.378906 L 24.621094 -25.097656 L 24.738281 -26.652344 L 24.976562 -27.25 L 25.097656 -28.800781 L 25.457031 -29.757812 L 25.574219 -30.59375 L 25.574219 -30.835938 L 27.367188 -30.714844 L 29.996094 -30.714844 L 32.269531 -30.59375 L 35.613281 -30.835938 L 37.289062 -31.074219 L 38.839844 -31.191406 L 40.277344 -31.433594 L 42.1875 -32.03125 L 43.742188 -32.746094 L 44.9375 -33.105469 L 46.609375 -33.941406 L 47.207031 -34.660156 L 48.761719 -35.855469 L 49.359375 -36.691406 L 50.195312 -37.886719 L 51.269531 -38.839844 L 52.109375 -40.277344 L 52.824219 -40.992188 L 53.898438 -42.785156 L 54.738281 -44.21875 L 55.335938 -45.535156 L 56.289062 -47.804688 L 56.886719 -49.476562 L 57.246094 -50.433594 L 57.605469 -52.109375 L 57.84375 -52.824219 L 57.964844 -53.542969 L 58.320312 -54.378906 L 58.441406 -55.335938 L 58.800781 -56.171875 L 59.039062 -57.84375 L 59.277344 -60.472656 L 59.398438 -61.308594 L 59.636719 -62.625 L 59.757812 -63.9375 L 59.636719 -65.253906 L 59.636719 -66.089844 L 59.515625 -67.882812 L 59.636719 -69.078125 L 59.277344 -70.394531 L 59.160156 -71.230469 L 59.039062 -72.542969 L 58.5625 -73.859375 L 58.320312 -74.695312 L 57.605469 -76.25 L 57.246094 -77.203125 L 56.53125 -78.042969 L 55.8125 -78.996094 L 55.335938 -79.59375 L 54.257812 -80.550781 L 52.703125 -81.386719 L 51.867188 -81.746094 L 51.03125 -82.34375 L 50.195312 -82.582031 L 48.28125 -82.941406 L 45.773438 -83.300781 L 44.21875 -83.539062 L 43.261719 -83.539062 L 41.472656 -83.777344 L 39.796875 -83.777344 L 38.003906 -83.660156 L 37.167969 -83.777344 L 29.160156 -83.777344 L 28.445312 -83.660156 L 26.890625 -83.777344 L 25.335938 -83.660156 L 19.121094 -83.660156 L 18.164062 -83.179688 L 17.6875 -81.628906 L 17.566406 -80.671875 L 17.210938 -78.996094 L 17.089844 -78.042969 L 16.972656 -77.203125 L 16.492188 -75.292969 L 16.253906 -74.457031 L 16.253906 -73.738281 L 16.132812 -72.902344 L 15.894531 -72.066406 L 15.894531 -71.109375 L 15.65625 -70.273438 L 15.535156 -68.839844 L 15.179688 -67.761719 L 14.820312 -66.089844 L 14.582031 -65.132812 L 14.460938 -62.984375 L 14.339844 -62.265625 L 13.984375 -60.710938 L 14.101562 -60.234375 L 13.984375 -58.917969 L 13.503906 -57.007812 L 13.386719 -56.289062 L 13.265625 -54.738281 L 12.90625 -53.898438 L 12.667969 -53.0625 L 12.546875 -51.511719 L 12.546875 -50.074219 L 12.191406 -48.523438 L 11.832031 -46.609375 L 11.59375 -44.816406 L 11.472656 -43.859375 L 11.113281 -42.1875 L 10.996094 -41.472656 L 10.757812 -40.632812 L 10.636719 -39.917969 L 10.398438 -39.082031 L 10.277344 -37.40625 L 10.160156 -36.453125 L 9.800781 -35.613281 L 9.441406 -33.105469 L 9.320312 -31.3125 L 8.964844 -30.59375 L 8.964844 -29.757812 L 8.722656 -29.042969 L 8.722656 -27.726562 L 8.125 -26.53125 L 8.125 -25.933594 L 8.007812 -24.5 L 7.886719 -23.78125 L 7.410156 -22.230469 L 7.171875 -21.511719 L 7.050781 -20.675781 L 6.933594 -19.121094 L 6.574219 -18.40625 L 6.09375 -15.65625 L 5.976562 -14.9375 L 5.855469 -14.101562 L 5.496094 -12.667969 L 5.378906 -11.832031 L 5.019531 -10.277344 L 4.660156 -8.484375 L 4.300781 -6.8125 L 4.300781 -6.09375 L 3.945312 -4.421875 L 4.0625 -3.585938 L 3.703125 -2.867188 L 3.703125 -0.597656 L 4.421875 0 L 6.574219 -0.121094 L 7.410156 0 Z M 28.085938 -45.894531 L 28.203125 -46.96875 L 28.5625 -48.640625 L 28.5625 -49.71875 L 29.160156 -52.703125 L 29.398438 -53.78125 L 29.398438 -54.738281 L 29.519531 -56.171875 L 29.878906 -58.082031 L 30.117188 -59.277344 L 30.476562 -61.667969 L 30.835938 -63.101562 L 31.074219 -63.9375 L 31.3125 -65.972656 L 31.433594 -67.167969 L 31.671875 -67.761719 L 32.269531 -69.199219 L 33.105469 -69.4375 L 35.855469 -69.554688 L 39.082031 -69.4375 L 40.15625 -69.199219 L 41.472656 -68.242188 L 42.1875 -67.167969 L 42.664062 -65.730469 L 42.664062 -63.699219 L 42.425781 -60.59375 L 41.949219 -57.246094 L 41.472656 -55.214844 L 40.992188 -54.140625 L 40.753906 -53.0625 L 40.15625 -51.390625 L 39.679688 -50.671875 L 38.839844 -49.359375 L 37.527344 -48.164062 L 35.613281 -46.730469 L 34.777344 -46.371094 L 32.507812 -46.132812 L 31.191406 -45.894531 Z M 28.085938 -45.894531 "/></g></g></g><g fill="#22c55e" fill-opacity="1"><g transform="translate(256.586139, 218.03939)"><g><path d="M 25.933594 0.71875 L 28.324219 0.71875 L 30.117188 0.597656 L 32.867188 0.597656 L 35.257812 0.359375 L 35.972656 0.121094 L 37.050781 -0.121094 L 38.484375 -0.476562 L 39.199219 -0.71875 L 41.113281 -1.433594 L 41.710938 -1.914062 L 43.144531 -2.507812 L 44.101562 -3.105469 L 45.175781 -3.703125 L 46.132812 -4.898438 L 47.207031 -5.738281 L 47.925781 -6.8125 L 48.402344 -7.886719 L 49 -8.722656 L 49.476562 -9.5625 L 50.195312 -11.234375 L 50.671875 -11.953125 L 51.511719 -13.503906 L 51.867188 -15.058594 L 52.464844 -15.777344 L 52.824219 -17.808594 L 53.300781 -19.359375 L 53.78125 -20.796875 L 54.019531 -21.632812 L 54.257812 -22.347656 L 54.257812 -23.183594 L 54.496094 -24.261719 L 54.855469 -25.574219 L 55.09375 -26.414062 L 55.09375 -27.128906 L 55.453125 -28.683594 L 55.933594 -30.117188 L 55.933594 -30.355469 L 56.289062 -32.03125 L 56.410156 -32.867188 L 56.886719 -34.539062 L 57.246094 -36.09375 L 57.484375 -37.527344 L 57.605469 -39.082031 L 58.082031 -40.035156 L 58.320312 -41.710938 L 58.320312 -42.546875 L 58.800781 -44.21875 L 58.917969 -45.894531 L 59.160156 -47.566406 L 59.277344 -48.28125 L 59.636719 -49.957031 L 59.636719 -50.671875 L 59.996094 -52.464844 L 60.832031 -55.09375 L 60.710938 -55.933594 L 60.953125 -56.769531 L 61.070312 -57.484375 L 61.308594 -58.320312 L 61.308594 -59.160156 L 61.667969 -60.59375 L 61.90625 -61.667969 L 62.265625 -62.742188 L 62.503906 -63.820312 L 62.863281 -65.132812 L 62.863281 -65.851562 L 63.339844 -67.285156 L 63.222656 -68.003906 L 63.699219 -69.554688 L 63.820312 -70.394531 L 64.058594 -71.347656 L 64.179688 -72.1875 L 64.65625 -73.859375 L 64.777344 -74.816406 L 65.015625 -76.488281 L 65.253906 -77.445312 L 65.375 -79.238281 L 66.089844 -80.910156 L 65.972656 -82.703125 L 65.015625 -83.660156 L 64.058594 -83.777344 L 62.984375 -83.660156 L 62.148438 -83.539062 L 60.953125 -83.660156 L 60.113281 -83.539062 L 59.160156 -83.539062 L 58.320312 -83.660156 L 57.484375 -83.660156 L 54.019531 -83.539062 L 53.183594 -83.660156 L 52.347656 -83.660156 L 48.761719 -83.539062 L 48.402344 -82.703125 L 48.28125 -81.746094 L 47.925781 -80.191406 L 47.566406 -78.519531 L 47.207031 -76.964844 L 47.089844 -76.25 L 46.96875 -74.816406 L 46.847656 -74.097656 L 46.25 -72.78125 L 46.371094 -71.945312 L 46.132812 -70.394531 L 45.894531 -68.71875 L 45.535156 -67.046875 L 45.414062 -66.089844 L 45.175781 -64.417969 L 45.054688 -63.460938 L 44.578125 -61.789062 L 44.699219 -60.472656 L 43.980469 -59.277344 L 43.980469 -57.605469 L 43.859375 -57.007812 L 43.621094 -55.335938 L 43.621094 -54.378906 L 43.144531 -52.703125 L 43.023438 -51.75 L 42.546875 -50.074219 L 42.308594 -48.640625 L 41.949219 -47.089844 L 41.710938 -45.535156 L 41.710938 -44.578125 L 41.113281 -42.90625 L 40.875 -42.070312 L 40.753906 -40.632812 L 40.277344 -38.484375 L 40.035156 -37.289062 L 39.796875 -35.734375 L 39.679688 -34.898438 L 39.4375 -33.941406 L 39.199219 -33.105469 L 39.082031 -32.03125 L 38.839844 -30.953125 L 38.601562 -30.238281 L 38.484375 -29.042969 L 38.242188 -28.203125 L 37.886719 -26.53125 L 37.289062 -24.140625 L 37.050781 -23.425781 L 36.808594 -22.347656 L 36.210938 -21.152344 L 35.375 -19.242188 L 35.015625 -18.523438 L 34.300781 -17.566406 L 33.105469 -16.613281 L 30.355469 -16.253906 L 27.847656 -16.613281 L 26.53125 -16.972656 L 25.21875 -18.523438 L 25.097656 -19.957031 L 25.097656 -21.273438 L 24.976562 -23.183594 L 25.097656 -24.023438 L 25.21875 -24.738281 L 25.335938 -25.816406 L 25.695312 -28.683594 L 26.054688 -30.238281 L 26.171875 -31.910156 L 26.53125 -34.300781 L 27.128906 -38.601562 L 27.367188 -40.035156 L 27.847656 -41.589844 L 27.847656 -43.144531 L 28.203125 -44.578125 L 28.445312 -45.296875 L 28.683594 -46.132812 L 28.800781 -47.089844 L 28.921875 -48.164062 L 29.398438 -49.238281 L 29.160156 -50.792969 L 29.28125 -51.511719 L 29.878906 -53.183594 L 29.878906 -54.019531 L 30.117188 -54.976562 L 30.238281 -55.8125 L 30.355469 -57.007812 L 30.714844 -57.84375 L 30.835938 -58.5625 L 31.074219 -60.355469 L 31.433594 -62.148438 L 31.550781 -63.101562 L 32.148438 -64.777344 L 32.269531 -65.613281 L 32.269531 -66.808594 L 32.386719 -67.761719 L 32.625 -69.316406 L 33.105469 -70.75 L 33.105469 -71.589844 L 33.34375 -72.304688 L 33.464844 -73.140625 L 33.703125 -74.097656 L 33.941406 -75.171875 L 34.179688 -76.011719 L 34.0625 -77.683594 L 34.300781 -78.519531 L 34.539062 -79.238281 L 34.539062 -80.910156 L 34.417969 -82.703125 L 33.34375 -83.539062 L 31.433594 -83.660156 L 30.355469 -83.777344 L 27.488281 -83.539062 L 22.46875 -83.660156 L 21.394531 -83.539062 L 20.796875 -83.539062 L 18.761719 -83.417969 L 18.046875 -83.179688 L 17.808594 -82.222656 L 17.328125 -80.550781 L 17.089844 -78.878906 L 16.851562 -77.683594 L 16.613281 -77.085938 L 16.015625 -75.53125 L 15.65625 -72.1875 L 15.417969 -71.46875 L 15.417969 -70.632812 L 15.058594 -68.957031 L 15.058594 -68.003906 L 14.9375 -67.046875 L 14.582031 -65.375 L 14.460938 -64.417969 L 14.339844 -63.582031 L 13.742188 -62.027344 L 13.625 -61.308594 L 13.625 -60.472656 L 13.386719 -58.917969 L 13.144531 -58.203125 L 12.789062 -54.855469 L 12.429688 -54.140625 L 12.308594 -52.464844 L 12.308594 -51.511719 L 11.832031 -49.835938 L 11.472656 -48.28125 L 11.355469 -46.609375 L 10.875 -45.054688 L 10.875 -43.503906 L 10.636719 -42.664062 L 10.277344 -41.230469 L 10.160156 -40.394531 L 10.277344 -39.558594 L 9.917969 -38.125 L 9.800781 -37.40625 L 9.679688 -36.570312 L 9.203125 -35.136719 L 9.203125 -33.582031 L 8.964844 -32.386719 L 8.722656 -30.953125 L 8.605469 -29.160156 L 8.484375 -27.605469 L 8.007812 -24.378906 L 7.769531 -23.304688 L 7.648438 -19.242188 L 7.527344 -18.523438 L 8.007812 -14.460938 L 8.125 -12.789062 L 8.605469 -10.875 L 9.5625 -9.203125 L 10.515625 -7.289062 L 10.636719 -6.933594 L 11.234375 -5.976562 L 11.832031 -5.257812 L 12.546875 -4.421875 L 13.742188 -3.226562 L 16.132812 -1.792969 L 16.851562 -1.433594 L 17.6875 -1.074219 L 19.71875 -0.359375 L 20.199219 -0.121094 L 21.035156 0.121094 Z M 25.933594 0.71875 "/></g></g></g></svg>