<svg xmlns="http://www.w3.org/2000/svg" xmlns:xlink="http://www.w3.org/1999/xlink" width="500" zoomAndPan="magnify" viewBox="0 0 375 305.999988" height="408" preserveAspectRatio="xMidYMid meet" version="1.0"><defs><clipPath id="780749dadd"><path d="M 30.675781 5.15625 L 327 5.15625 L 327 300.65625 L 30.675781 300.65625 Z M 30.675781 5.15625 " clip-rule="nonzero"/></clipPath><clipPath id="d710e6d185"><path d="M 201 213 L 326.164062 213 L 326.164062 293 L 201 293 Z M 201 213 " clip-rule="nonzero"/></clipPath><clipPath id="f2408c79f6"><path d="M 178.429688 5.15625 C 260.019531 5.15625 326.164062 71.308594 326.164062 152.902344 C 326.164062 234.507812 260.019531 300.65625 178.429688 300.65625 C 96.84375 300.65625 30.699219 234.507812 30.699219 152.902344 C 30.699219 71.308594 96.84375 5.15625 178.429688 5.15625 Z M 178.429688 5.15625 " clip-rule="evenodd"/></clipPath><clipPath id="6643652cff"><path d="M 201 260 L 215 260 L 215 276 L 201 276 Z M 201 260 " clip-rule="nonzero"/></clipPath><clipPath id="c291ee605a"><path d="M 178.429688 5.15625 C 260.019531 5.15625 326.164062 71.308594 326.164062 152.902344 C 326.164062 234.507812 260.019531 300.65625 178.429688 300.65625 C 96.84375 300.65625 30.699219 234.507812 30.699219 152.902344 C 30.699219 71.308594 96.84375 5.15625 178.429688 5.15625 Z M 178.429688 5.15625 " clip-rule="evenodd"/></clipPath><clipPath id="e4c57b1dcd"><path d="M 211 244 L 235 244 L 235 266 L 211 266 Z M 211 244 " clip-rule="nonzero"/></clipPath><clipPath id="527911b43f"><path d="M 178.429688 5.15625 C 260.019531 5.15625 326.164062 71.308594 326.164062 152.902344 C 326.164062 234.507812 260.019531 300.65625 178.429688 300.65625 C 96.84375 300.65625 30.699219 234.507812 30.699219 152.902344 C 30.699219 71.308594 96.84375 5.15625 178.429688 5.15625 Z M 178.429688 5.15625 " clip-rule="evenodd"/></clipPath><clipPath id="ab9722f482"><path d="M 288 241 L 326.164062 241 L 326.164062 284 L 288 284 Z M 288 241 " clip-rule="nonzero"/></clipPath><clipPath id="c8ececd314"><path d="M 178.429688 5.15625 C 260.019531 5.15625 326.164062 71.308594 326.164062 152.902344 C 326.164062 234.507812 260.019531 300.65625 178.429688 300.65625 C 96.84375 300.65625 30.699219 234.507812 30.699219 152.902344 C 30.699219 71.308594 96.84375 5.15625 178.429688 5.15625 Z M 178.429688 5.15625 " clip-rule="evenodd"/></clipPath><clipPath id="8f1b776b78"><path d="M 246 213 L 311 213 L 311 264 L 246 264 Z M 246 213 " clip-rule="nonzero"/></clipPath><clipPath id="359d21868c"><path d="M 178.429688 5.15625 C 260.019531 5.15625 326.164062 71.308594 326.164062 152.902344 C 326.164062 234.507812 260.019531 300.65625 178.429688 300.65625 C 96.84375 300.65625 30.699219 234.507812 30.699219 152.902344 C 30.699219 71.308594 96.84375 5.15625 178.429688 5.15625 Z M 178.429688 5.15625 " clip-rule="evenodd"/></clipPath></defs><g clip-path="url(#780749dadd)"><path fill="#53b4ed" d="M 178.429688 5.15625 C 260.019531 5.15625 326.164062 71.308594 326.164062 152.902344 C 326.164062 234.507812 260.019531 300.65625 178.429688 300.65625 C 96.84375 300.65625 30.699219 234.507812 30.699219 152.902344 C 30.699219 71.308594 96.84375 5.15625 178.429688 5.15625 Z M 178.429688 5.15625 " fill-opacity="1" fill-rule="evenodd"/></g><g clip-path="url(#d710e6d185)"><g clip-path="url(#f2408c79f6)"><path fill="#cad0d1" d="M 272.988281 213.261719 C 253.96875 213.261719 238.148438 226.976562 234.894531 245.066406 C 233.3125 244.652344 231.660156 244.429688 229.953125 244.429688 C 220.003906 244.429688 211.804688 251.875 210.601562 261.496094 C 205.519531 262.324219 201.636719 266.730469 201.636719 272.050781 C 201.636719 277.949219 206.421875 282.734375 212.320312 282.734375 C 214.953125 282.734375 217.351562 281.792969 219.214844 280.21875 C 222.292969 282.253906 225.988281 283.441406 229.953125 283.441406 C 235.433594 283.441406 240.386719 281.175781 243.925781 277.535156 C 251.015625 285.597656 261.40625 290.679688 272.988281 290.679688 C 277.882812 290.679688 282.574219 289.769531 286.890625 288.101562 C 291.191406 291.183594 296.46875 292.996094 302.15625 292.996094 C 316.675781 292.996094 328.445312 281.222656 328.445312 266.703125 C 328.445312 255.03125 320.839844 245.136719 310.316406 241.707031 C 305.816406 225.3125 290.808594 213.261719 272.988281 213.261719 Z M 272.988281 213.261719 " fill-opacity="1" fill-rule="evenodd"/></g></g><g clip-path="url(#6643652cff)"><g clip-path="url(#c291ee605a)"><path fill="#ffffff" d="M 210.742188 260.558594 C 210.691406 260.875 210.640625 261.183594 210.601562 261.496094 C 205.519531 262.324219 201.636719 266.730469 201.636719 272.050781 C 201.636719 272.722656 201.699219 273.371094 201.820312 274.007812 C 203.085938 274.84375 204.605469 275.324219 206.226562 275.324219 C 210.683594 275.324219 214.300781 271.707031 214.300781 267.25 C 214.300781 264.464844 212.886719 262.007812 210.742188 260.558594 Z M 210.742188 260.558594 " fill-opacity="1" fill-rule="evenodd"/></g></g><g clip-path="url(#e4c57b1dcd)"><g clip-path="url(#527911b43f)"><path fill="#ffffff" d="M 234.476562 244.960938 C 233.027344 244.617188 231.507812 244.429688 229.953125 244.429688 C 221.339844 244.429688 214.035156 250.019531 211.453125 257.761719 C 213.953125 262.40625 218.855469 265.5625 224.503906 265.5625 C 228.484375 265.5625 232.101562 263.988281 234.761719 261.433594 C 233.789062 258.726562 233.265625 255.816406 233.265625 252.769531 C 233.265625 250.050781 233.683594 247.425781 234.476562 244.960938 Z M 234.476562 244.960938 " fill-opacity="1" fill-rule="evenodd"/></g></g><g clip-path="url(#ab9722f482)"><g clip-path="url(#c8ececd314)"><path fill="#ffffff" d="M 326.746094 276.023438 C 327.84375 273.128906 328.445312 269.984375 328.445312 266.703125 C 328.445312 255.03125 320.839844 245.136719 310.316406 241.707031 L 310.160156 241.191406 L 310.148438 241.191406 C 298.34375 241.191406 288.773438 250.753906 288.773438 262.5625 C 288.773438 274.367188 298.34375 283.933594 310.148438 283.933594 C 316.84375 283.933594 322.828125 280.847656 326.746094 276.023438 Z M 326.746094 276.023438 " fill-opacity="1" fill-rule="evenodd"/></g></g><g clip-path="url(#8f1b776b78)"><g clip-path="url(#359d21868c)"><path fill="#ffffff" d="M 272.988281 213.261719 C 262.945312 213.261719 253.800781 217.082031 246.921875 223.351562 C 246.578125 225.285156 246.40625 227.269531 246.40625 229.300781 C 246.40625 248.222656 261.75 263.5625 280.667969 263.5625 C 283.460938 263.5625 286.175781 263.226562 288.773438 262.597656 L 288.773438 262.5625 C 288.773438 250.753906 298.34375 241.191406 310.148438 241.191406 L 310.160156 241.191406 C 305.496094 225.058594 290.621094 213.261719 272.988281 213.261719 Z M 272.988281 213.261719 " fill-opacity="1" fill-rule="evenodd"/></g></g><path fill="#ecf0f1" d="M 201.484375 85.851562 L 222.746094 80.414062 C 224.082031 80.078125 225.449219 80.890625 225.792969 82.21875 L 227.839844 90.253906 C 228.183594 91.589844 227.371094 92.953125 226.035156 93.296875 L 203.996094 98.929688 C 200.664062 99.777344 197.25 97.753906 196.398438 94.421875 C 195.4375 90.664062 197.726562 86.808594 201.484375 85.851562 Z M 201.484375 85.851562 " fill-opacity="1" fill-rule="evenodd"/><path fill="#cad0d1" d="M 227.402344 88.53125 L 227.839844 90.253906 C 228.183594 91.589844 227.253906 92.988281 225.769531 93.367188 L 204.652344 98.761719 C 200.964844 99.699219 197.25 97.753906 196.402344 94.421875 L 196.398438 94.421875 C 196.292969 94.011719 196.234375 93.597656 196.207031 93.183594 C 198.152344 94.6875 200.886719 95.304688 203.609375 94.605469 Z M 227.402344 88.53125 " fill-opacity="1" fill-rule="evenodd"/><path fill="#ff7375" d="M 216.679688 81.964844 L 218.867188 81.40625 L 222.15625 94.289062 L 219.972656 94.847656 Z M 216.679688 81.964844 " fill-opacity="1" fill-rule="evenodd"/><path fill="#ff576b" d="M 246.347656 98.472656 L 171.261719 73.261719 L 156.878906 74.410156 L 198.539062 109.691406 Z M 246.347656 98.472656 " fill-opacity="1" fill-rule="evenodd"/><path fill="#ecf0f1" d="M 117.625 144.828125 L 268.832031 79.980469 C 278.746094 75.730469 292.277344 76.429688 302.324219 80.335938 C 329.488281 79.417969 344.152344 104.785156 286.023438 126.492188 C 259.648438 136.339844 131.238281 176.824219 131.238281 176.824219 L 69.960938 176.15625 L 66.957031 167.011719 Z M 117.625 144.828125 " fill-opacity="1" fill-rule="evenodd"/><path fill="#cad0d1" d="M 318.160156 83.414062 C 332.390625 90.726562 330.976562 109.707031 286.023438 126.492188 C 259.648438 136.339844 131.238281 176.824219 131.238281 176.824219 L 69.960938 176.15625 L 66.957031 167.011719 L 67.453125 166.796875 L 123.394531 167.410156 C 123.394531 167.410156 251.8125 126.921875 278.183594 117.074219 C 309.582031 105.347656 319.734375 92.554688 318.160156 83.414062 Z M 318.160156 83.414062 " fill-opacity="1" fill-rule="evenodd"/><path fill="#ecf0f1" d="M 206.640625 156.800781 L 235.222656 149.503906 C 237.0625 149.035156 238.953125 150.152344 239.421875 151.988281 L 242.25 163.058594 C 242.71875 164.898438 241.597656 166.789062 239.757812 167.257812 L 210.097656 174.835938 C 205.507812 176.003906 200.796875 173.210938 199.628906 168.628906 C 198.308594 163.449219 201.460938 158.125 206.640625 156.800781 Z M 206.640625 156.800781 " fill-opacity="1" fill-rule="evenodd"/><path fill="#cad0d1" d="M 241.640625 160.679688 L 242.25 163.058594 C 242.71875 164.898438 241.457031 166.824219 239.457031 167.332031 L 210.851562 174.640625 C 205.847656 175.921875 200.796875 173.210938 199.628906 168.628906 C 199.480469 168.054688 199.398438 167.488281 199.363281 166.921875 C 202.007812 169 205.714844 169.859375 209.410156 168.914062 Z M 241.640625 160.679688 " fill-opacity="1" fill-rule="evenodd"/><path fill="#ff7375" d="M 227.0625 151.585938 L 230.023438 150.832031 L 234.558594 168.585938 L 231.597656 169.34375 Z M 227.0625 151.585938 " fill-opacity="1" fill-rule="evenodd"/><path fill="#74c3f1" d="M 285.777344 77.109375 C 291.558594 77.269531 297.335938 78.40625 302.285156 80.320312 C 302.242188 80.484375 300.308594 88.53125 291.058594 91.433594 C 281.703125 94.375 276.171875 86.726562 276.171875 86.726562 C 285.390625 83.976562 285.769531 77.300781 285.777344 77.109375 Z M 285.777344 77.109375 " fill-opacity="1" fill-rule="evenodd"/><path fill="#ff576b" d="M 256.886719 119.476562 L 177.625 213.359375 L 160.074219 213.90625 L 199.980469 135.648438 Z M 256.886719 119.476562 " fill-opacity="1" fill-rule="evenodd"/><path fill="#ff576b" d="M 108.871094 166.054688 L 88.964844 192.289062 L 68.335938 199.0625 L 82.421875 174.171875 Z M 108.871094 166.054688 " fill-opacity="1" fill-rule="evenodd"/><path fill="#ff576b" d="M 65.320312 140.671875 L 101.550781 151.867188 L 71.714844 164.933594 L 55.433594 147.003906 Z M 65.320312 140.671875 " fill-opacity="1" fill-rule="evenodd"/><path fill="#74c3f1" d="M 241.355469 108.769531 L 241.554688 109.28125 C 241.703125 109.660156 241.769531 110.050781 241.761719 110.453125 C 241.753906 110.859375 241.667969 111.246094 241.507812 111.617188 C 241.34375 111.988281 241.117188 112.3125 240.824219 112.59375 C 240.53125 112.875 240.199219 113.089844 239.820312 113.234375 L 236.398438 114.570312 C 236.023438 114.71875 235.632812 114.785156 235.226562 114.777344 C 234.824219 114.769531 234.433594 114.683594 234.066406 114.519531 C 233.695312 114.359375 233.367188 114.132812 233.089844 113.839844 C 232.808594 113.546875 232.59375 113.210938 232.445312 112.835938 L 232.246094 112.324219 C 232.101562 111.945312 232.03125 111.554688 232.039062 111.148438 C 232.046875 110.746094 232.132812 110.355469 232.296875 109.988281 C 232.457031 109.617188 232.6875 109.289062 232.976562 109.011719 C 233.269531 108.730469 233.605469 108.515625 233.980469 108.371094 L 237.402344 107.035156 C 237.777344 106.886719 238.171875 106.820312 238.574219 106.828125 C 238.980469 106.835938 239.367188 106.921875 239.738281 107.082031 C 240.109375 107.246094 240.433594 107.472656 240.714844 107.765625 C 240.996094 108.058594 241.207031 108.390625 241.355469 108.769531 Z M 241.355469 108.769531 " fill-opacity="1" fill-rule="evenodd"/><path fill="#74c3f1" d="M 226.324219 114.847656 L 226.523438 115.359375 C 226.671875 115.738281 226.742188 116.128906 226.734375 116.535156 C 226.726562 116.9375 226.640625 117.328125 226.476562 117.695312 C 226.3125 118.066406 226.085938 118.394531 225.792969 118.671875 C 225.503906 118.953125 225.167969 119.167969 224.789062 119.316406 L 221.371094 120.648438 C 220.992188 120.796875 220.601562 120.867188 220.199219 120.855469 C 219.792969 120.847656 219.40625 120.761719 219.035156 120.601562 C 218.664062 120.4375 218.339844 120.210938 218.058594 119.917969 C 217.777344 119.625 217.566406 119.292969 217.417969 118.914062 L 217.21875 118.402344 C 217.070312 118.023438 217 117.632812 217.007812 117.230469 C 217.019531 116.824219 217.105469 116.4375 217.265625 116.066406 C 217.429688 115.695312 217.65625 115.371094 217.949219 115.089844 C 218.242188 114.808594 218.574219 114.59375 218.953125 114.449219 L 222.371094 113.113281 C 222.75 112.96875 223.140625 112.898438 223.546875 112.90625 C 223.949219 112.914062 224.335938 113 224.707031 113.164062 C 225.078125 113.324219 225.402344 113.550781 225.683594 113.84375 C 225.964844 114.136719 226.179688 114.472656 226.324219 114.847656 Z M 226.324219 114.847656 " fill-opacity="1" fill-rule="evenodd"/><path fill="#74c3f1" d="M 211.296875 120.925781 L 211.496094 121.441406 C 211.644531 121.816406 211.710938 122.207031 211.703125 122.613281 C 211.695312 123.015625 211.609375 123.40625 211.449219 123.777344 C 211.285156 124.144531 211.058594 124.472656 210.765625 124.75 C 210.472656 125.03125 210.136719 125.246094 209.761719 125.394531 L 206.339844 126.726562 C 205.964844 126.875 205.574219 126.945312 205.167969 126.933594 C 204.765625 126.925781 204.375 126.839844 204.003906 126.679688 C 203.636719 126.515625 203.308594 126.289062 203.03125 125.996094 C 202.75 125.703125 202.535156 125.371094 202.386719 124.992188 L 202.1875 124.480469 C 202.042969 124.101562 201.972656 123.710938 201.980469 123.308594 C 201.988281 122.902344 202.074219 122.515625 202.238281 122.144531 C 202.398438 121.773438 202.628906 121.449219 202.917969 121.167969 C 203.210938 120.886719 203.546875 120.671875 203.921875 120.527344 L 207.34375 119.191406 C 207.71875 119.046875 208.109375 118.976562 208.515625 118.984375 C 208.921875 118.992188 209.308594 119.078125 209.679688 119.242188 C 210.050781 119.402344 210.375 119.632812 210.65625 119.921875 C 210.933594 120.214844 211.148438 120.550781 211.296875 120.925781 Z M 211.296875 120.925781 " fill-opacity="1" fill-rule="evenodd"/><path fill="#74c3f1" d="M 196.265625 127.007812 L 196.464844 127.519531 C 196.613281 127.894531 196.683594 128.285156 196.675781 128.691406 C 196.664062 129.097656 196.582031 129.484375 196.417969 129.855469 C 196.253906 130.226562 196.027344 130.550781 195.734375 130.832031 C 195.445312 131.109375 195.109375 131.324219 194.730469 131.472656 L 191.3125 132.804688 C 190.933594 132.953125 190.542969 133.023438 190.140625 133.015625 C 189.734375 133.003906 189.347656 132.921875 188.976562 132.757812 C 188.605469 132.59375 188.28125 132.367188 188 132.074219 C 187.71875 131.785156 187.507812 131.449219 187.359375 131.070312 L 187.160156 130.558594 C 187.011719 130.183594 186.941406 129.792969 186.949219 129.386719 C 186.960938 128.980469 187.042969 128.59375 187.207031 128.222656 C 187.371094 127.851562 187.597656 127.527344 187.890625 127.246094 C 188.183594 126.964844 188.515625 126.753906 188.894531 126.605469 L 192.3125 125.273438 C 192.691406 125.125 193.082031 125.054688 193.484375 125.0625 C 193.890625 125.070312 194.277344 125.15625 194.648438 125.320312 C 195.019531 125.484375 195.34375 125.710938 195.625 126.003906 C 195.90625 126.292969 196.121094 126.628906 196.265625 127.007812 Z M 196.265625 127.007812 " fill-opacity="1" fill-rule="evenodd"/><path fill="#74c3f1" d="M 181.238281 133.085938 L 181.4375 133.597656 C 181.582031 133.976562 181.652344 134.367188 181.644531 134.769531 C 181.636719 135.175781 181.550781 135.5625 181.386719 135.933594 C 181.226562 136.304688 180.996094 136.628906 180.707031 136.910156 C 180.414062 137.191406 180.078125 137.402344 179.703125 137.550781 L 176.28125 138.886719 C 175.90625 139.03125 175.515625 139.101562 175.109375 139.09375 C 174.703125 139.085938 174.316406 139 173.945312 138.835938 C 173.574219 138.675781 173.25 138.445312 172.96875 138.15625 C 172.691406 137.863281 172.476562 137.527344 172.328125 137.152344 L 172.128906 136.636719 C 171.980469 136.261719 171.914062 135.871094 171.921875 135.464844 C 171.929688 135.0625 172.015625 134.671875 172.179688 134.300781 C 172.339844 133.929688 172.566406 133.605469 172.859375 133.324219 C 173.152344 133.046875 173.488281 132.832031 173.863281 132.683594 L 177.285156 131.351562 C 177.660156 131.203125 178.050781 131.132812 178.457031 131.140625 C 178.859375 131.152344 179.25 131.238281 179.621094 131.398438 C 179.988281 131.5625 180.316406 131.789062 180.597656 132.082031 C 180.875 132.375 181.089844 132.707031 181.238281 133.085938 Z M 181.238281 133.085938 " fill-opacity="1" fill-rule="evenodd"/><path fill="#74c3f1" d="M 166.207031 139.164062 L 166.40625 139.675781 C 166.554688 140.054688 166.625 140.445312 166.617188 140.847656 C 166.605469 141.253906 166.523438 141.640625 166.359375 142.011719 C 166.195312 142.382812 165.96875 142.707031 165.675781 142.988281 C 165.386719 143.269531 165.050781 143.480469 164.671875 143.628906 L 161.253906 144.964844 C 160.875 145.109375 160.484375 145.179688 160.082031 145.171875 C 159.675781 145.164062 159.289062 145.078125 158.917969 144.914062 C 158.546875 144.753906 158.222656 144.523438 157.941406 144.234375 C 157.660156 143.941406 157.445312 143.605469 157.300781 143.230469 L 157.101562 142.714844 C 156.953125 142.339844 156.882812 141.949219 156.890625 141.542969 C 156.902344 141.140625 156.984375 140.75 157.148438 140.378906 C 157.3125 140.011719 157.539062 139.683594 157.832031 139.402344 C 158.121094 139.125 158.457031 138.910156 158.835938 138.761719 L 162.253906 137.429688 C 162.632812 137.28125 163.023438 137.210938 163.425781 137.222656 C 163.832031 137.230469 164.21875 137.316406 164.589844 137.476562 C 164.960938 137.640625 165.285156 137.867188 165.566406 138.160156 C 165.847656 138.453125 166.0625 138.785156 166.207031 139.164062 Z M 166.207031 139.164062 " fill-opacity="1" fill-rule="evenodd"/><path fill="#74c3f1" d="M 151.179688 145.242188 L 151.378906 145.753906 C 151.523438 146.132812 151.59375 146.523438 151.585938 146.929688 C 151.578125 147.332031 151.492188 147.71875 151.328125 148.089844 C 151.167969 148.460938 150.9375 148.789062 150.648438 149.066406 C 150.355469 149.347656 150.019531 149.5625 149.644531 149.707031 L 146.222656 151.042969 C 145.847656 151.191406 145.457031 151.257812 145.050781 151.25 C 144.644531 151.242188 144.257812 151.15625 143.886719 150.996094 C 143.515625 150.832031 143.191406 150.605469 142.910156 150.3125 C 142.632812 150.019531 142.417969 149.683594 142.269531 149.308594 L 142.070312 148.796875 C 141.921875 148.417969 141.855469 148.027344 141.863281 147.621094 C 141.871094 147.21875 141.957031 146.832031 142.117188 146.460938 C 142.28125 146.089844 142.507812 145.761719 142.800781 145.484375 C 143.09375 145.203125 143.429688 144.988281 143.804688 144.84375 L 147.226562 143.507812 C 147.601562 143.359375 147.992188 143.292969 148.398438 143.300781 C 148.800781 143.308594 149.191406 143.394531 149.5625 143.554688 C 149.929688 143.71875 150.257812 143.945312 150.535156 144.238281 C 150.816406 144.53125 151.03125 144.867188 151.179688 145.242188 Z M 151.179688 145.242188 " fill-opacity="1" fill-rule="evenodd"/><path fill="#ffffff" d="M 159.738281 190.152344 L 122.285156 200.1875 L 121.09375 195.738281 L 158.550781 185.703125 Z M 159.738281 190.152344 " fill-opacity="1" fill-rule="nonzero"/><path fill="#ffffff" d="M 159.597656 95.570312 L 122.152344 105.605469 L 120.960938 101.15625 L 158.410156 91.121094 Z M 159.597656 95.570312 " fill-opacity="1" fill-rule="nonzero"/><path fill="#ffffff" d="M 233.234375 188.046875 L 206.484375 195.21875 L 205.296875 190.761719 L 232.046875 183.597656 Z M 233.234375 188.046875 " fill-opacity="1" fill-rule="nonzero"/><path fill="#cad0d1" d="M 109.808594 40.203125 C 118.027344 40.203125 124.867188 46.128906 126.273438 53.945312 C 126.957031 53.773438 127.671875 53.675781 128.40625 53.675781 C 132.710938 53.675781 136.257812 56.894531 136.773438 61.050781 C 138.972656 61.40625 140.652344 63.308594 140.652344 65.613281 C 140.652344 68.160156 138.578125 70.230469 136.027344 70.230469 C 134.890625 70.230469 133.855469 69.816406 133.050781 69.140625 C 131.714844 70.019531 130.128906 70.53125 128.40625 70.53125 C 126.039062 70.53125 123.898438 69.550781 122.367188 67.984375 C 119.300781 71.460938 114.816406 73.660156 109.808594 73.660156 C 107.695312 73.660156 105.664062 73.269531 103.796875 72.546875 C 101.941406 73.878906 99.660156 74.660156 97.199219 74.660156 C 90.929688 74.660156 85.84375 69.574219 85.84375 63.296875 C 85.84375 58.257812 89.132812 53.980469 93.679688 52.5 C 95.617188 45.410156 102.105469 40.203125 109.808594 40.203125 Z M 109.808594 40.203125 " fill-opacity="1" fill-rule="evenodd"/><path fill="#ffffff" d="M 136.710938 60.644531 C 136.730469 60.777344 136.753906 60.910156 136.773438 61.050781 C 138.972656 61.40625 140.652344 63.308594 140.652344 65.613281 C 140.652344 65.898438 140.621094 66.179688 140.566406 66.460938 C 140.019531 66.816406 139.371094 67.027344 138.664062 67.027344 C 136.738281 67.027344 135.171875 65.464844 135.171875 63.535156 C 135.171875 62.332031 135.78125 61.273438 136.710938 60.644531 Z M 136.710938 60.644531 " fill-opacity="1" fill-rule="evenodd"/><path fill="#ffffff" d="M 126.453125 53.898438 C 127.082031 53.75 127.734375 53.675781 128.40625 53.675781 C 132.128906 53.675781 135.289062 56.089844 136.402344 59.433594 C 135.324219 61.441406 133.207031 62.804688 130.765625 62.804688 C 129.042969 62.804688 127.480469 62.128906 126.328125 61.023438 C 126.746094 59.851562 126.976562 58.59375 126.976562 57.277344 C 126.976562 56.101562 126.796875 54.96875 126.453125 53.898438 Z M 126.453125 53.898438 " fill-opacity="1" fill-rule="evenodd"/><path fill="#ffffff" d="M 86.578125 67.328125 C 86.101562 66.074219 85.84375 64.714844 85.84375 63.296875 C 85.84375 58.257812 89.132812 53.980469 93.679688 52.5 L 93.742188 52.273438 L 93.75 52.273438 C 98.851562 52.273438 102.984375 56.410156 102.984375 61.511719 C 102.984375 66.613281 98.851562 70.75 93.75 70.75 C 90.851562 70.75 88.269531 69.414062 86.578125 67.328125 Z M 86.578125 67.328125 " fill-opacity="1" fill-rule="evenodd"/><path fill="#ffffff" d="M 109.808594 40.203125 C 114.152344 40.203125 118.105469 41.855469 121.074219 44.5625 C 121.21875 45.394531 121.296875 46.257812 121.296875 47.132812 C 121.296875 55.3125 114.671875 61.9375 106.492188 61.9375 C 105.28125 61.9375 104.113281 61.796875 102.984375 61.527344 L 102.984375 61.511719 C 102.984375 56.410156 98.851562 52.273438 93.75 52.273438 L 93.742188 52.273438 C 95.757812 45.296875 102.1875 40.203125 109.808594 40.203125 Z M 109.808594 40.203125 " fill-opacity="1" fill-rule="evenodd"/></svg>