<?xml version="1.0" standalone="no"?>
<!DOCTYPE svg PUBLIC "-//W3C//DTD SVG 20010904//EN"
 "http://www.w3.org/TR/2001/REC-SVG-20010904/DTD/svg10.dtd">
<svg version="1.0" xmlns="http://www.w3.org/2000/svg"
 width="305.000000pt" height="138.000000pt" viewBox="0 0 305.000000 138.000000"
 preserveAspectRatio="xMidYMid meet">

<g transform="translate(0.000000,138.000000) scale(0.100000,-0.100000)"
fill="#000000" stroke="none">
<path d="M384 1328 c-21 -29 -60 -78 -88 -108 -27 -30 -60 -78 -72 -105 -33
-72 -174 -693 -174 -767 0 -133 89 -209 227 -195 52 5 53 5 129 -54 42 -33 78
-58 80 -57 1 2 25 32 53 67 l51 63 -40 29 c-22 16 -40 32 -40 35 0 3 12 20 27
38 48 56 74 136 145 446 96 415 98 473 23 539 -42 37 -90 51 -174 51 l-64 0
20 23 c39 43 38 47 -16 47 -48 0 -50 -1 -87 -52z m130 -234 c9 -8 16 -25 16
-36 0 -41 -142 -634 -159 -663 -14 -24 -24 -30 -52 -30 -33 0 -34 2 -37 40 -3
44 129 630 149 663 12 19 43 40 61 41 4 1 14 -6 22 -15z"/>
<path d="M802 853 c-106 -461 -116 -530 -88 -596 31 -76 114 -113 232 -104
135 10 221 72 280 201 16 34 66 231 128 499 l102 442 -104 3 c-58 1 -107 1
-109 -2 -3 -3 -51 -202 -107 -444 -56 -242 -109 -450 -119 -465 -29 -45 -97
-33 -97 17 0 15 156 709 197 874 5 22 4 22 -104 22 l-108 0 -103 -447z"/>
<path d="M1535 1288 c-7 -22 -255 -1110 -255 -1120 0 -5 47 -7 107 -6 l106 3
128 555 c71 305 128 561 129 568 0 9 -27 12 -105 12 -76 0 -107 -4 -110 -12z"/>
</g>
</svg>
